Patient4_TMGait_0pt3_03_right_03_GRF.mot
version=1
nRows=65
nColumns=19
inDegrees=no
endheader
time	F1x	F1y	F1z	M1x	M1y	M1z	F2x	F2y	F2z	M2x	M2y	M2z	EC1x	EC1y	EC1z	EC2x	EC2y	EC2z
5.49	-10.3903	727.2996	52.3789	-265.8135	-55.4154	727.1329	-1.3734	34.6472	-7.2422	13.6247	5.976	25.1043	-0.0592	0.0182	-0.0073	-0.0462	0.0165	0.9585
5.5094	-10.9728	750.5754	54.4068	-274.0397	-57.4018	748.1964	-1.9862	29.1018	-5.9709	11.2461	5.3092	21.7357	-0.0592	0.0182	-0.0073	-0.0462	0.0165	0.9585
5.5289	-11.6071	776.5645	56.6148	-283.2324	-59.5276	771.5769	-2.3406	22.7796	-4.5949	8.6599	4.4314	17.545	-0.0592	0.0182	-0.0073	-0.0462	0.0165	0.9585
5.5483	-12.1502	802.8552	58.7713	-292.5356	-61.5158	794.914	-2.3227	16.4234	-3.235	6.1487	3.3952	13.0863	-0.0592	0.0182	-0.0073	-0.0462	0.0165	0.9585
5.5677	-12.4471	826.928	60.6454	-301.0582	-63.0828	815.7236	-1.9808	10.7702	-2.0241	3.9706	2.3298	8.9712	-0.0592	0.0182	-0.0073	-0.0462	0.0165	0.9585
5.5871	-12.3494	846.6267	62.0387	-308.0422	-63.9803	831.8659	-1.501	6.2861	-1.0634	2.2771	1.3927	5.6199	-0.0592	0.0182	-0.0073	-0.0462	0.0165	0.9585
5.6066	-11.7106	860.427	62.8111	-312.9542	-64.0163	841.8176	-1.0174	3.0673	-0.37491	1.086	0.65898	3.1562	-0.0592	0.0182	-0.0073	-0.0462	0.0165	0.9585
5.626	-10.4031	867.4577	62.9066	-315.4849	-63.0906	844.7144	-0.60203	0.97957	0.068703	0.33357	0.13997	1.5137	-0.0592	0.0182	-0.0073	-0.0462	0.0165	0.9585
5.6454	-8.3776	867.3792	62.3582	-315.5016	-61.2242	840.2562	-0.28416	-0.22455	0.31989	-0.083429	-0.19093	0.52841	-0.0592	0.0182	-0.0073	-0.0462	0.0165	0.9585
5.6649	-5.682	860.3307	61.2668	-313.0339	-58.5414	828.6622	-0.066048	-0.82923	0.43771	-0.27926	-0.37847	-0.0054599	-0.0592	0.0182	-0.0073	-0.0462	0.0165	0.9585
5.6843	-2.4257	846.9651	59.7747	-308.2931	-55.233	810.6801	0.061744	-1.1119	0.47737	-0.36221	-0.47072	-0.30516	-0.0592	0.0182	-0.0073	-0.0462	0.0165	0.9585
5.7037	1.2621	828.4915	58.0343	-301.6964	-51.5103	787.6002	0.11646	-1.3177	0.48504	-0.42555	-0.50978	-0.5757	-0.0592	0.0182	-0.0073	-0.0462	0.0165	0.9585
5.7231	5.2684	806.6633	56.1879	-293.868	-47.5648	761.2187	0.11875	-1.6447	0.49407	-0.54371	-0.53035	-0.99291	-0.0592	0.0182	-0.0073	-0.0462	0.0165	0.9585
5.7426	9.5009	783.6599	54.3699	-285.5958	-43.5683	733.6899	0.089898	-2.2355	0.52239	-0.76988	-0.55844	-1.6867	-0.0592	0.0182	-0.0073	-0.0462	0.0165	0.9585
5.762	13.8822	761.8411	52.7046	-277.7373	-39.6745	707.2953	0.048377	-3.166	0.57205	-1.1309	-0.60246	-2.7246	-0.0592	0.0182	-0.0073	-0.0462	0.0165	0.9585
5.7814	18.3375	743.4002	51.3015	-271.0905	-36.0196	684.1252	0.00874	-4.4221	0.63127	-1.62	-0.65679	-4.0903	-0.0592	0.0182	-0.0073	-0.0462	0.0165	0.9585
5.8009	22.8016	730.0274	50.2407	-266.2702	-32.7078	665.7756	-0.015901	-5.864	0.67802	-2.1842	-0.70539	-5.6443	-0.0592	0.0182	-0.0073	-0.0462	0.0165	0.9585
5.8203	27.2013	722.5866	49.5725	-263.5866	-29.8143	653.0759	-0.010975	-7.1783	0.67646	-2.7062	-0.71742	-7.0686	-0.0592	0.0182	-0.0073	-0.0462	0.0165	0.9585
5.8397	31.454	720.9076	49.3202	-262.9666	-27.3917	645.9132	0.043181	-7.8321	0.57611	-2.9843	-0.64496	-7.8105	-0.0592	0.0182	-0.0073	-0.0462	0.0165	0.9585
5.8591	35.4797	723.7983	49.4563	-263.9606	-25.4519	643.2557	0.16464	-7.0351	0.31116	-2.7141	-0.42034	-7.0372	-0.0592	0.0182	-0.0073	-0.0462	0.0165	0.9585
5.8786	39.1697	729.1815	49.9041	-265.7927	-23.978	643.3028	0.36786	-3.7184	-0.19454	-1.481	0.038386	-3.617	-0.0592	0.0182	-0.0073	-0.0462	0.0165	0.9585
5.898	42.3611	734.3606	50.5692	-267.4582	-22.9591	643.7439	0.66167	3.4378	-1.0165	1.2283	0.81646	3.8461	-0.0592	0.0182	-0.0073	-0.0462	0.0165	0.9585
5.9174	44.869	736.5169	51.3403	-267.9083	-22.3786	642.1866	1.035	15.8804	-2.2089	5.979	1.9859	16.8877	-0.0592	0.0182	-0.0073	-0.0462	0.0165	0.9585
5.9369	46.523	733.2027	52.074	-266.2391	-22.185	636.572	1.3719	34.9693	-3.7736	13.3077	3.6008	36.9606	-0.0592	0.0182	-0.0073	-0.0462	0.0165	0.9585
5.9563	47.1933	722.6184	52.5933	-261.8003	-22.2827	625.3892	1.3151	61.6267	-5.619	23.5899	5.7047	65.0701	-0.0592	0.0182	-0.0073	-0.0462	0.0165	0.9585
5.9757	46.8096	703.756	52.6967	-254.2524	-22.532	607.7906	0.18432	95.8538	-7.5485	36.8507	8.3431	101.2703	-0.0592	0.0182	-0.0073	-0.0462	0.0165	0.9585
5.9951	45.4038	676.5181	52.1922	-243.6104	-22.7584	583.6597	-2.4903	136.4218	-9.3448	52.6322	11.4578	144.3171	-0.0592	0.0182	-0.0073	-0.0462	0.0165	0.9585
6.0146	43.1608	641.8	50.9697	-230.2626	-22.7909	553.6492	-6.5476	180.9233	-11.0519	69.983	15.0265	191.6834	-0.0592	0.0182	-0.0073	-0.0462	0.0165	0.9585
6.034	40.402	601.3968	49.0527	-214.9254	-22.5094	519.1111	-11.4982	226.2665	-12.9596	87.6536	19.1472	240.0721	-0.0592	0.0182	-0.0073	-0.0462	0.0165	0.9585
6.0534	37.4947	557.6347	46.5693	-198.4992	-21.8601	481.8252	-16.7875	270.199	-15.1522	104.7223	23.6758	287.0694	-0.0592	0.0182	-0.0073	-0.0462	0.0165	0.9585
6.0729	34.7223	512.6646	43.664	-181.8052	-20.8371	443.4551	-21.9527	311.6765	-17.5454	120.754	28.3334	331.5203	-0.0592	0.0182	-0.0073	-0.0462	0.0165	0.9585
6.0923	32.1912	467.9075	40.4153	-165.3806	-19.4508	405.1198	-26.6608	350.4143	-19.9801	135.6228	32.8232	373.0461	-0.0592	0.0182	-0.0073	-0.0462	0.0165	0.9585
6.1117	29.8599	424.0546	36.8654	-149.4757	-17.7384	367.3936	-30.6715	386.5976	-22.3158	149.3947	36.914	411.7365	-0.0592	0.0182	-0.0073	-0.0462	0.0165	0.9585
6.1311	27.6057	381.3315	33.0734	-134.1512	-15.7806	330.5011	-33.7907	420.5853	-24.5237	162.2083	40.5064	447.8471	-0.0592	0.0182	-0.0073	-0.0462	0.0165	0.9585
6.1506	25.28	339.7487	29.1407	-119.3768	-13.7034	294.5118	-35.9115	452.701	-26.6938	174.1919	43.6473	481.598	-0.0592	0.0182	-0.0073	-0.0462	0.0165	0.9585
6.17	22.74	299.2993	25.1988	-105.1075	-11.6574	259.4849	-37.0438	483.2685	-28.9428	185.4783	46.453	513.2278	-0.0592	0.0182	-0.0073	-0.0462	0.0165	0.9585
6.1894	19.8876	260.0639	21.3897	-91.3288	-9.79	225.5326	-37.2751	512.7363	-31.3209	196.2529	49.0005	543.1278	-0.0592	0.0182	-0.0073	-0.0462	0.0165	0.9585
6.2089	16.6886	222.2476	17.8354	-78.0778	-8.2171	192.8511	-36.7357	541.6784	-33.7966	206.7508	51.3047	571.8558	-0.0592	0.0182	-0.0073	-0.0462	0.0165	0.9585
6.2283	13.1777	186.1939	14.6294	-65.4494	-7.0112	161.7362	-35.594	570.5836	-36.3246	217.1714	53.383	599.9279	-0.0592	0.0182	-0.0073	-0.0462	0.0165	0.9585
6.2477	9.4765	152.3642	11.8419	-53.5904	-6.1908	132.5692	-34.0345	599.6123	-38.8828	227.5809	55.2818	627.5586	-0.0592	0.0182	-0.0073	-0.0462	0.0165	0.9585
6.2671	5.7989	121.272	9.5085	-42.6765	-5.7099	105.7653	-32.22	628.4578	-41.4651	237.8581	57.0587	654.5084	-0.0592	0.0182	-0.0073	-0.0462	0.0165	0.9585
6.2866	2.407	93.3889	7.6173	-32.8753	-5.4643	81.7005	-30.2929	656.3492	-44.063	247.7029	58.7666	680.097	-0.0592	0.0182	-0.0073	-0.0462	0.0165	0.9585
6.306	-0.4476	69.0571	6.1011	-24.3122	-5.3045	60.6487	-28.3892	682.2609	-46.634	256.7287	60.4297	703.4174	-0.0592	0.0182	-0.0073	-0.0462	0.0165	0.9585
6.3254	-2.5631	48.467	4.8497	-17.061	-5.0663	42.7742	-26.6529	705.2628	-49.0837	264.6026	62.028	723.6705	-0.0592	0.0182	-0.0073	-0.0462	0.0165	0.9585
6.3449	-3.8209	31.6839	3.7427	-11.1517	-4.6121	28.1544	-25.2493	724.8041	-51.2838	271.1547	63.5115	740.4332	-0.0592	0.0182	-0.0073	-0.0462	0.0165	0.9585
6.3643	-4.2045	18.6578	2.7101	-6.5703	-3.8852	16.767	-24.3418	740.8404	-53.0882	276.4254	64.8067	753.7725	-0.0592	0.0182	-0.0073	-0.0462	0.0165	0.9585
6.3837	-3.8704	9.2078	1.7643	-3.2528	-2.9602	8.472	-24.039	753.7999	-54.3626	280.6421	65.821	764.1857	-0.0592	0.0182	-0.0073	-0.0462	0.0165	0.9585
6.4031	-3.1557	2.9735	0.98258	-1.0685	-2.03	2.9781	-24.3512	764.403	-55.0265	284.1388	66.4695	772.3986	-0.0592	0.0182	-0.0073	-0.0462	0.0165	0.9585
6.4226	-2.3389	-0.64334	0.40471	0.19534	-1.2322	-0.22497	-25.1572	773.4712	-55.0729	287.2776	66.686	779.1537	-0.0592	0.0182	-0.0073	-0.0462	0.0165	0.9585
6.442	-1.584	-2.3315	0.020152	0.782	-0.61846	-1.7391	-26.2166	781.7999	-54.5515	290.3986	66.4143	785.0854	-0.0592	0.0182	-0.0073	-0.0462	0.0165	0.9585
6.4614	-0.97148	-2.7354	-0.20757	0.91983	-0.18764	-2.1219	-27.216	790.0476	-53.5464	293.7732	65.6039	790.6344	-0.0592	0.0182	-0.0073	-0.0462	0.0165	0.9585
6.4809	-0.52674	-2.389	-0.32164	0.79706	0.083378	-1.8355	-27.8244	798.5848	-52.1768	297.5383	64.2292	795.9404	-0.0592	0.0182	-0.0073	-0.0462	0.0165	0.9585
6.5003	-0.24416	-1.6921	-0.36038	0.55413	0.2259	-1.2361	-27.7437	807.4225	-50.5835	301.6667	62.2993	800.8156	-0.0592	0.0182	-0.0073	-0.0462	0.0165	0.9585
6.5197	-0.10587	-0.92055	-0.35448	0.28752	0.27295	-0.57072	-26.7384	816.2259	-48.9174	305.9752	59.8602	804.7972	-0.0592	0.0182	-0.0073	-0.0462	0.0165	0.9585
6.5391	-0.087519	-0.25684	-0.32842	0.060129	0.25622	-0.0082214	-24.6751	824.3477	-47.3282	310.1454	57.0021	807.2143	-0.0592	0.0182	-0.0073	-0.0462	0.0165	0.9585
6.5586	-0.16243	0.17722	-0.30052	-0.086724	0.20244	0.33732	-21.5555	830.9111	-45.9368	313.7677	53.8476	807.2894	-0.0592	0.0182	-0.0073	-0.0462	0.0165	0.9585
6.578	-0.30571	0.30029	-0.28242	-0.1243	0.13212	0.39379	-17.5098	834.964	-44.8128	316.4095	50.5258	804.2731	-0.0592	0.0182	-0.0073	-0.0462	0.0165	0.9585
6.5974	-0.49387	0.059425	-0.28041	-0.030883	0.06054	0.10605	-12.7619	835.6136	-43.9735	317.6748	47.157	797.545	-0.0592	0.0182	-0.0073	-0.0462	0.0165	0.9585
6.6169	-0.69927	-0.57864	-0.29946	0.20958	0.0033627	-0.57123	-7.5764	832.1953	-43.4002	317.271	43.847	786.7306	-0.0592	0.0182	-0.0073	-0.0462	0.0165	0.9585
6.6363	-0.88042	-1.6184	-0.34358	0.60203	-0.022039	-1.651	-2.1914	824.4902	-43.0507	315.0939	40.6702	771.8571	-0.0592	0.0182	-0.0073	-0.0462	0.0165	0.9585
6.6557	-0.97734	-3.0155	-0.41127	1.1301	0.0052589	-3.0939	3.2324	812.873	-42.8703	311.2846	37.6567	753.4507	-0.0592	0.0182	-0.0073	-0.0462	0.0165	0.9585
6.6751	-0.90201	-4.638	-0.49343	1.743	0.11147	-4.7719	8.6087	798.3014	-42.806	306.222	34.8059	732.5123	-0.0592	0.0182	-0.0073	-0.0462	0.0165	0.9585
6.6946	-0.5373	-6.2079	-0.57534	2.3357	0.32458	-6.4052	13.8782	782.1561	-42.8104	300.4568	32.106	710.3849	-0.0592	0.0182	-0.0073	-0.0462	0.0165	0.9585
6.714	0.25599	-7.246	-0.63055	2.7277	0.67062	-7.5015	18.9748	765.9771	-42.8549	294.6027	29.5591	688.5271	-0.0592	0.0182	-0.0073	-0.0462	0.0165	0.9585
6.7334	1.6219	-7.0193	-0.61523	2.6404	1.1615	-7.2991	23.8061	751.0932	-42.9312	289.1884	27.1913	668.1947	-0.0592	0.0182	-0.0073	-0.0462	0.0165	0.9585
